<?xml version="1.0" encoding="utf-8"?>
<!-- Generator: Adobe Illustrator 26.0.0, SVG Export Plug-In . SVG Version: 6.00 Build 0)  -->
<svg version="1.1" id="Layer_1" xmlns="http://www.w3.org/2000/svg" xmlns:xlink="http://www.w3.org/1999/xlink" x="0px" y="0px"
	 viewBox="0 0 280 70" style="enable-background:new 0 0 280 70;" xml:space="preserve">
<style type="text/css">
	.st0{fill:#1C2E52;}
	.st1{fill:#245FA5;}
	.st2{fill:#626465;}
</style>
<g>
	<g>
		<path class="st0" d="M64,29.1c-0.1-0.3-0.3-0.6-0.6-0.7l-12.9-6.9L41.3,7.3h0l20.6,12.9c0.2,0.1,0.4,0.2,0.6,0.2
			c0.6,0,1.1-0.5,1.1-1.1c0-0.3-0.1-0.5-0.2-0.7l-8.1-13C55.1,5.2,54.8,5,54.4,5H39.2c0,0,0,0-0.1,0h-1.4c0,0,0,0-0.1,0h-1.5l0,0H18
			c-0.4,0-0.8,0.2-1,0.5L9,18.6c-0.1,0.2-0.2,0.4-0.2,0.7c0,0.6,0.5,1.1,1.1,1.1c0.2,0,0.4-0.1,0.6-0.2L31.1,7.3h0l-9.3,14.2L9,28.3
			c-0.3,0.2-0.5,0.4-0.6,0.7c-0.1,0.3,0,0.6,0.2,0.9l9.3,14.1c0.2,0.3,0.6,0.5,0.9,0.5c0.1,0,0.2,0,0.3,0c0.5-0.1,0.8-0.6,0.8-1.1
			V28.5l3.6-5.6c0,0,0,0,0,0l9.5-14.6l-4.7,25.3L21,44.5c-0.3,0.4-0.3,0.9,0,1.3l12.8,18.7c0.2,0.3,0.6,0.5,0.9,0.5
			c0.2,0,0.3,0,0.5-0.1c0.5-0.2,0.8-0.8,0.6-1.3l-6.5-21.8l1.4-7.4c0,0,0,0,0,0l5-27.1h0.6l0,0h0.6l5,27c0,0,0,0,0,0l1.4,7.4
			l-6.5,21.8c-0.2,0.5,0.1,1.1,0.6,1.3c0.2,0.1,0.3,0.1,0.5,0.1c0.4,0,0.7-0.2,0.9-0.5l12.8-18.7c0.3-0.4,0.3-0.9,0-1.3l-7.5-10.8
			L39.3,8.3l9.5,14.6c0,0,0,0,0,0l3.6,5.6v14.9c0,0.5,0.3,0.9,0.8,1.1c0.1,0,0.2,0,0.3,0c0.4,0,0.7-0.2,0.9-0.5L63.8,30
			C64,29.7,64.1,29.4,64,29.1z M53.8,7.3l5.2,8.4L45.6,7.3H53.8z M13.5,15.7l5.2-8.4h8.2L13.5,15.7z M17.9,27.6
			c-0.1,0.2-0.2,0.4-0.2,0.6v11.5l-6.5-9.9l8.1-4.3L17.9,27.6z M31.6,57.3l-8.3-12.1l4.2-6.1L27,41.6c0,0.2,0,0.4,0,0.5L31.6,57.3z
			 M45.4,41.6l-0.5-2.5l4.2,6.1l-8.3,12.1l4.5-15.1C45.4,42,45.4,41.8,45.4,41.6z M54.7,39.7V28.2c0-0.2-0.1-0.4-0.2-0.6l-1.4-2.2
			l8.1,4.3L54.7,39.7z"/>
	</g>
	<g>
		<g>
			<g>
				<path class="st0" d="M84.6,22l8.3-9.2h-4.3L78.4,23.9V12.8h-3.6v21.5h3.6v-5.5l3.6-4l7.1,9.5h4.4L84.6,22z"/>
			</g>
			<g>
				<path class="st0" d="M98.4,12.8v21.5h3.6V12.8H98.4z"/>
			</g>
			<g>
				<path class="st0" d="M127.7,12.8l-7.1,14.3l-7.1-14.3h-4.3v21.5h3.4V18.2l6.8,13.8h2.4l6.8-13.8l0,16.1h3.3V12.8H127.7z"/>
			</g>
			<g>
				<path class="st0" d="M151.9,23c2.3-0.6,3.8-2.4,3.8-4.8c0-3.3-2.8-5.4-7.2-5.4h-9.3V16h9.2c2.3,0,3.7,1,3.7,2.8
					s-1.4,2.9-3.7,2.9h-9.2v12.6h9.6c4.8,0,7.8-2.2,7.8-5.9C156.5,25.5,154.8,23.4,151.9,23z M148.3,31.1h-5.5v-6.2h5.5
					c2.8,0,4.5,1.1,4.5,3C152.8,30,151.1,31.1,148.3,31.1z"/>
			</g>
			<g>
				<path class="st0" d="M162.3,12.8v3.3h3.6l0,0h11.8v-3.3H162.3z M166,31v-5.9h10.5v-3.3H166v0h-3.6v12.5h15.7V31L166,31L166,31z"
					/>
			</g>
			<g>
				<path class="st0" d="M197,27.1c2.9-1.1,4.5-3.5,4.5-7c0-4.7-3.2-7.3-8.7-7.3H184v21.5h3.6v-6.5h5.1c0.3,0,0.7,0,1,0l3.9,6.5h4.1
					L197,27.1z M192.7,24.6h-5.1V16h5.1c3.3,0,5.2,1.3,5.2,4.2C198,23.1,196.1,24.6,192.7,24.6z"/>
			</g>
			<g>
				<path class="st1" d="M211.4,31V12.8h-3.6v21.5h12.9V31H211.4z"/>
			</g>
			<g>
				<path class="st1" d="M225.7,12.8v21.5h3.6V12.8H225.7z"/>
			</g>
			<g>
				<path class="st1" d="M233.9,12.8V16h6.8v18.3h3.6V16h6.8v-3.3H233.9z"/>
			</g>
			<g>
				<path class="st1" d="M259.5,31v-5.9H270v-3.3h-10.5v0h-3.6v12.5h15.7V31L259.5,31L259.5,31z M261.8,16h9.4v-3.3h-15.4V16H261.8
					L261.8,16z"/>
			</g>
		</g>
		<g>
			<g>
				<path class="st2" d="M187.5,46v11.1h-2.2V46h-4.1v-2h10.5v2C191.6,46,187.5,46,187.5,46z"/>
			</g>
			<g>
				<path class="st2" d="M212.7,50.6c0,3.7-3,6.6-6.9,6.6c-3.9,0-6.9-2.9-6.9-6.6c0-3.8,3-6.6,6.9-6.6
					C209.7,44,212.7,46.9,212.7,50.6z M201.1,50.6c0,2.6,2.1,4.6,4.7,4.6s4.6-2.1,4.6-4.6c0-2.6-2.1-4.6-4.6-4.6
					C203.2,46,201.1,48,201.1,50.6z"/>
			</g>
			<g>
				<path class="st2" d="M226,51.4l-2.2,2.4v3.3h-2.2V44.1h2.2v6.8l6.2-6.8h2.6l-5.1,5.6l5.4,7.5h-2.7L226,51.4z"/>
			</g>
			<g>
				<path class="st2" d="M243.7,46v3.5h6.4v2h-6.4v3.6h7.4v2h-9.6V44.1h9.3v2L243.7,46L243.7,46z"/>
			</g>
			<g>
				<path class="st2" d="M269.4,57.1l-7-9.4v9.4h-2.2V44.1h2.2l7,9.4v-9.4h2.2v13.1H269.4z"/>
			</g>
		</g>
		<g>
			<path class="st0" d="M174.7,51.2h-100c-0.3,0-0.6-0.3-0.6-0.6c0-0.3,0.3-0.6,0.6-0.6h100c0.3,0,0.6,0.3,0.6,0.6
				C175.3,50.9,175,51.2,174.7,51.2z"/>
		</g>
	</g>
</g>
</svg>
