<svg id="Layer_1" data-name="Layer 1" xmlns="http://www.w3.org/2000/svg" viewBox="0 0 120 120"><defs><style>.cls-1{fill:#1c2e52;}.cls-2{fill:#fff;}</style></defs><rect class="cls-1" x="-1" y="-1" width="122" height="122"/><path class="cls-2" d="M70,48.28a.4.4,0,0,0-.2-.26l-4.56-2.44-3.29-5h0l7.31,4.58a.4.4,0,0,0,.61-.33.34.34,0,0,0-.07-.24l-2.86-4.63a.39.39,0,0,0-.34-.19H53.69a.39.39,0,0,0-.34.19l-2.86,4.63a.35.35,0,0,0-.07.25.4.4,0,0,0,.4.38.37.37,0,0,0,.21-.06l7.31-4.59h0l-3.3,5L50.49,48a.41.41,0,0,0-.15.58l3.3,5a.39.39,0,0,0,.33.19l.12,0a.41.41,0,0,0,.29-.39v-5.3l1.29-2h0l3.38-5.18-1.66,9-2.66,3.85a.41.41,0,0,0,0,.46l4.55,6.64a.41.41,0,0,0,.33.18.47.47,0,0,0,.17,0,.42.42,0,0,0,.22-.48l-2.3-7.74.48-2.63h0L60,40.53h.39l1.77,9.6v0l.48,2.62-2.3,7.74a.42.42,0,0,0,.22.48.47.47,0,0,0,.17,0,.41.41,0,0,0,.33-.18l4.55-6.64a.41.41,0,0,0,0-.46l-2.66-3.84-1.66-9,3.38,5.18h0l1.29,2v5.3a.41.41,0,0,0,.29.39l.12,0a.39.39,0,0,0,.33-.19l3.3-5A.4.4,0,0,0,70,48.28Zm-3.63-7.74,1.84,3-4.74-3Zm-14.3,3,1.85-3h2.9Zm1.57,4.24a.36.36,0,0,0-.07.22v4.08l-2.31-3.52L54.14,47Zm4.85,10.53L55.56,54l1.49-2.15-.16.89a.31.31,0,0,0,0,.19Zm4.91-5.55-.16-.89L64.73,54,61.8,58.28l1.59-5.36A.31.31,0,0,0,63.4,52.73Zm3.32-.68V48a.36.36,0,0,0-.07-.22l-.5-.77L69,48.53Z"/><path class="cls-2" d="M28.69,67.75l3-3.26H30.13l-3.64,4v-4H25.2v7.64h1.29V70.19l1.3-1.43,2.51,3.37h1.55Z"/><path class="cls-2" d="M33.6,64.49v7.64h1.29V64.49Z"/><path class="cls-2" d="M44,64.49l-2.51,5.07L39,64.49H37.42v7.64h1.21V66.42L41,71.33h.85l2.41-4.91v5.71H45.5V64.49Z"/><path class="cls-2" d="M52.58,68.1a1.67,1.67,0,0,0,1.34-1.7c0-1.19-1-1.91-2.56-1.91H48v1.14h3.25c.82,0,1.31.35,1.31,1s-.49,1-1.31,1H48v4.48h3.39c1.73,0,2.79-.79,2.79-2.1A1.87,1.87,0,0,0,52.58,68.1ZM51.29,71h-2V68.79h2c1,0,1.61.4,1.61,1.08S52.29,71,51.29,71Z"/><path class="cls-2" d="M56.29,64.49v1.16h5.45V64.49ZM57.57,71v-2.1h3.74V67.71h-5v4.43h5.58V71Z"/><path class="cls-2" d="M68.58,69.57a2.44,2.44,0,0,0,1.59-2.47c0-1.66-1.13-2.61-3.08-2.61H64v7.64h1.29v-2.3h1.81a2,2,0,0,0,.35,0l1.39,2.32H70.3Zm-1.49-.9H65.28v-3h1.81c1.18,0,1.85.48,1.85,1.48S68.27,68.67,67.09,68.67Z"/><path class="cls-2" d="M73.71,71V64.49H72.43v7.64H77V71Z"/><path class="cls-2" d="M78.8,64.49v7.64h1.28V64.49Z"/><path class="cls-2" d="M81.71,64.49v1.16h2.41v6.48h1.29V65.65h2.42V64.49Z"/><path class="cls-2" d="M90.79,71v-2.1h3.73V67.71h-5v4.43h5.59V71Zm.83-5.32H95V64.49H89.5v1.15h2.12Z"/><path class="cls-2" d="M65.22,76.3v3.94h-.79V76.3H63v-.7h3.72v.7Z"/><path class="cls-2" d="M74.17,77.92a2.46,2.46,0,1,1-2.46-2.34A2.38,2.38,0,0,1,74.17,77.92Zm-4.12,0a1.66,1.66,0,0,0,3.32,0,1.66,1.66,0,0,0-3.32,0Z"/><path class="cls-2" d="M78.89,78.19l-.79.87v1.18h-.78V75.6h.78V78l2.22-2.4h.92l-1.8,2,1.92,2.66h-.94Z"/><path class="cls-2" d="M85.18,76.3v1.26h2.27v.7H85.18v1.28h2.61v.7H84.4V75.6h3.31v.7Z"/><path class="cls-2" d="M94.32,80.24l-2.47-3.33v3.33h-.79V75.6h.77l2.49,3.33V75.6h.77v4.64Z"/><path class="cls-2" d="M60.69,78.22H25.2a.29.29,0,1,1,0-.58H60.69a.29.29,0,1,1,0,.58Z"/></svg>