<?xml version="1.0" encoding="utf-8"?>
<!-- Generator: Adobe Illustrator 26.0.0, SVG Export Plug-In . SVG Version: 6.00 Build 0)  -->
<svg version="1.1" id="Layer_1" xmlns="http://www.w3.org/2000/svg" xmlns:xlink="http://www.w3.org/1999/xlink" x="0px" y="0px"
	 width="256px" height="256px" viewBox="0 0 256 256" style="enable-background:new 0 0 256 256;" xml:space="preserve">
<style type="text/css">
	.st0{fill:#FFFFFF;}
	.st1{fill:#1C2E52;}
</style>
<rect class="st0" width="256" height="256"/>
<g>
	<path class="st1" d="M243.7,103.3c-0.3-1.3-1.2-2.4-2.4-3l-53.6-28.7l-38.6-59.1h0.1l85.7,53.8c0.8,0.5,1.6,0.7,2.5,0.7
		c2.6,0,4.6-2,4.7-4.6c0-1-0.3-2-0.8-2.8L207.7,5.3c-0.9-1.4-2.4-2.2-4-2.2h-63.1c-0.1,0-0.2,0-0.2,0h-5.8c-0.1,0-0.2,0-0.3,0H128v0
		H52.3c-1.6,0-3.2,0.8-4,2.2L14.7,59.5c-0.6,0.8-0.9,1.8-0.8,2.9C14,65,16.1,67,18.6,67c0.9,0,1.8-0.3,2.5-0.7l85.7-53.8h0.1
		L68.3,71.6l-53.6,28.7c-1.2,0.6-2,1.7-2.4,3c-0.3,1.3-0.1,2.7,0.6,3.8l38.7,58.8c0.9,1.4,2.4,2.1,4,2.1c0.5,0,0.9-0.1,1.4-0.2
		c2-0.6,3.4-2.4,3.4-4.5v-62.2l15.2-23.2c0,0,0.1-0.1,0.1-0.1L115.2,17L95.8,122.5l-31.3,45.1c-1.1,1.6-1.1,3.7,0,5.4l53.3,77.9
		c0.9,1.3,2.4,2.1,3.9,2.1c0.7,0,1.4-0.1,2-0.5c2.1-1,3.2-3.4,2.5-5.6l-27-90.7l5.7-30.9c0-0.1,0-0.1,0-0.2l20.7-112.7h2.3v0h2.3
		L151,125.1c0,0.1,0,0.1,0,0.2l5.7,30.8l-27,90.7c-0.7,2.2,0.4,4.6,2.5,5.6c0.7,0.3,1.3,0.5,2,0.5c1.5,0,3-0.7,3.9-2.1l53.3-77.9
		c1.1-1.6,1.1-3.8,0-5.4l-31.3-45.1L140.8,17l39.7,60.8c0,0,0.1,0.1,0.1,0.1l15.2,23.2v62.2c0,2.1,1.4,3.9,3.4,4.5
		c0.4,0.1,0.9,0.2,1.4,0.2c1.6,0,3.1-0.8,4-2.1l38.7-58.8C243.8,106,244,104.6,243.7,103.3z M201.1,12.5l21.6,34.9L167,12.5H201.1z
		 M33.3,47.4l21.6-35H89L33.3,47.4z M51.6,97.1c-0.5,0.8-0.8,1.7-0.8,2.6v47.8l-27.2-41.3l33.8-18.1L51.6,97.1z M108.6,220.7
		l-34.4-50.3l17.5-25.3l-1.9,10.5c-0.1,0.7-0.1,1.5,0.1,2.2L108.6,220.7z M166.2,155.6l-1.9-10.5l17.5,25.3l-34.4,50.3l18.7-62.9
		C166.3,157.1,166.4,156.3,166.2,155.6z M205.1,147.5V99.7c0-0.9-0.3-1.8-0.8-2.6l-5.9-9l33.8,18.1L205.1,147.5z"/>
</g>
</svg>
