<svg id="Layer_1" data-name="Layer 1" xmlns="http://www.w3.org/2000/svg" viewBox="0 0 27.79 30"><defs><style>.cls-1{fill:#1c2e52;}</style></defs><path class="cls-1" d="M29.88,13a.54.54,0,0,0-.28-.36L23.17,9.24l-4.63-7.1h0L28.83,8.59a.53.53,0,0,0,.3.09.57.57,0,0,0,.57-.55.62.62,0,0,0-.1-.34l-4-6.52A.58.58,0,0,0,25.08,1H6.92a.58.58,0,0,0-.49.27l-4,6.51a.62.62,0,0,0-.1.35.58.58,0,0,0,.57.55.53.53,0,0,0,.3-.09L13.46,2.13h0L8.83,9.24,2.4,12.68a.54.54,0,0,0-.28.36.55.55,0,0,0,.08.45l4.64,7.06a.56.56,0,0,0,.47.26.45.45,0,0,0,.16,0,.57.57,0,0,0,.41-.54V12.77L9.7,10v0l4.76-7.29L12.14,15.34,8.39,20.76a.56.56,0,0,0,0,.64l6.4,9.35a.57.57,0,0,0,.47.25.53.53,0,0,0,.24-.06.56.56,0,0,0,.3-.67L12.55,19.38l.68-3.7v0L15.72,2.13h.56l2.48,13.51v0l.68,3.7L16.21,30.27a.56.56,0,0,0,.3.67.53.53,0,0,0,.24.06.57.57,0,0,0,.47-.25l6.4-9.35a.56.56,0,0,0,0-.64l-3.75-5.42L17.53,2.68,22.29,10v0l1.82,2.78v7.47a.57.57,0,0,0,.41.54.45.45,0,0,0,.16,0,.56.56,0,0,0,.47-.26l4.64-7.06A.55.55,0,0,0,29.88,13ZM24.77,2.14l2.59,4.19L20.68,2.14ZM4.64,6.33l2.59-4.2h4.09Zm2.2,6a.57.57,0,0,0-.1.31v5.73L3.49,13.39l4.05-2.18Zm6.83,14.82-4.13-6,2.1-3-.23,1.26a.5.5,0,0,0,0,.27Zm6.92-7.81-.23-1.26,2.1,3-4.13,6,2.25-7.54A.62.62,0,0,0,20.59,19.31Zm4.67-1V12.61a.57.57,0,0,0-.1-.31l-.7-1.09,4.05,2.18Z" transform="translate(-2.1 -1)"/></svg>